<svg width="139" height="71" viewBox="0 0 139 71" fill="none" xmlns="http://www.w3.org/2000/svg">
<g clip-path="url(#clip0_2213:3520)">
<path d="M29.7185 35.9602C29.7185 35.2345 29.7185 34.5088 29.7185 33.8193C28.9928 35.1256 28.3033 36.4682 27.6502 37.8471C27.6139 37.8108 28.3759 37.1214 29.7185 35.9602Z" fill="#006225"/>
<path d="M31.8594 30.0813C31.7143 31.5691 31.6054 33.0205 31.4966 34.5083C32.186 33.964 32.948 33.3471 33.7826 32.694C33.9641 30.5168 34.1818 28.3033 34.4721 26.0898C33.5649 27.3599 32.694 28.7025 31.8594 30.0813Z" fill="#006225"/>
<path d="M40.4595 18.4336C39.4435 19.5948 38.4275 20.7922 37.4115 22.0622C37.3389 22.3162 37.3026 22.5702 37.2301 22.8242C36.6132 25.6909 36.0689 28.5212 35.5972 31.3153C36.3955 30.771 37.2301 30.1904 38.1009 29.5735C38.4638 27.4689 38.8992 25.3643 39.3347 23.2234C39.6975 21.6631 40.0604 20.0302 40.4595 18.4336Z" fill="#006225"/>
<path d="M44.7774 14.0064C43.8339 16.6916 42.9268 19.4131 42.0922 22.2071C41.4753 24.2029 40.931 26.1624 40.3867 28.1218C41.2576 27.5775 42.1285 27.0332 43.0719 26.5252C43.4348 25.2915 43.7614 24.0577 44.1605 22.824C45.3942 18.7962 46.7005 14.8773 48.152 11.1035C46.9908 12.0107 45.866 12.9904 44.7774 14.0064Z" fill="#006225"/>
<path d="M52.724 7.83776C50.5468 12.3373 48.4422 17.0908 46.519 22.0257C46.0836 23.1143 45.6845 24.2392 45.249 25.3278C46.1562 24.8561 47.0996 24.3843 48.0794 23.9126C48.2245 23.5497 48.3697 23.1506 48.5148 22.7877C50.8008 16.9093 53.3409 11.285 56.0261 6.02344C54.9375 6.53145 53.8489 7.14831 52.724 7.83776Z" fill="#006225"/>
<path d="M50.5103 22.8599C51.4537 22.4607 52.4334 22.0979 53.4495 21.735C56.6789 15.0946 60.1987 8.85336 63.8636 3.12012C62.8113 3.44669 61.759 3.77327 60.6704 4.17242C57.2232 9.76052 53.9212 15.7841 50.8368 22.1705C50.728 22.3882 50.6191 22.6059 50.5103 22.8599Z" fill="#006225"/>
<path d="M68.654 1.81444C64.2271 7.62026 59.9453 14.0429 55.9175 20.9374C56.7158 20.7196 57.5504 20.5019 58.3487 20.2842C58.5301 20.2479 58.6752 20.2116 58.8567 20.1753C62.9933 13.2809 67.384 6.89453 71.8835 1.125C70.8312 1.34272 69.7426 1.56044 68.654 1.81444Z" fill="#006225"/>
<path d="M61.2153 19.5948C62.3765 19.2683 63.4651 18.9054 64.59 18.5425C69.4161 11.7933 74.4599 5.62459 79.5399 0.181641C78.4514 0.254213 77.399 0.363072 76.3467 0.471931C71.1941 6.16889 66.0777 12.5916 61.2153 19.5948Z" fill="#006225"/>
<path d="M83.7854 0C78.2699 5.11638 72.7906 10.9585 67.4565 17.4537C68.9806 16.8369 70.4683 16.1837 71.8835 15.5306C76.8184 9.79732 81.8985 4.60837 86.9423 0.0362863C85.8537 -3.51461e-08 84.8377 0 83.7854 0Z" fill="#006225"/>
<path d="M93.1106 0.689803C93.3646 0.435799 93.4734 0.290653 93.4734 0.290653C93.4734 0.290653 93.4372 0.32694 93.4009 0.363226C93.4372 0.32694 93.4371 0.290653 93.4734 0.290653C92.6751 0.254367 91.8768 0.181794 91.0785 0.145508C86.2887 3.95558 81.4627 8.27365 76.6729 13.0272C85.6356 7.91079 91.5865 2.21383 93.1106 0.689803C93.038 0.762376 92.9654 0.834949 92.8928 0.907521C92.9654 0.834949 93.038 0.762376 93.1106 0.689803Z" fill="#006225"/>
<path d="M37.5564 36.2865C37.883 35.6333 38.1733 34.9801 38.4999 34.3633C37.2661 35.2342 36.0324 36.105 34.835 37.0485C34.835 37.0485 35.851 36.7219 37.5564 36.2865Z" fill="#CED0B4"/>
<path d="M42.0922 32.0044C41.2939 33.2745 40.5319 34.5445 39.8062 35.7782C40.677 35.5968 41.6205 35.3791 42.6728 35.1976C43.7976 33.3107 44.9951 31.4601 46.2288 29.5732C44.85 30.3353 43.4711 31.1336 42.0922 32.0044Z" fill="#CED0B4"/>
<path d="M54.974 25.4004C53.5225 25.981 52.0711 26.5978 50.6196 27.2873C50.4382 27.505 50.2931 27.6864 50.1116 27.9041C48.2973 30.1902 46.5556 32.4762 44.8501 34.7986C45.7935 34.6534 46.8096 34.5083 47.8619 34.3631C49.1319 32.6577 50.4382 30.9522 51.8171 29.2467C52.8694 27.9404 53.9217 26.6704 54.974 25.4004Z" fill="#CED0B4"/>
<path d="M60.8159 23.3679C58.7839 25.3274 56.7518 27.3957 54.7198 29.5003C53.3046 30.988 51.9258 32.5121 50.5469 34.0361C51.5629 33.9272 52.6152 33.8546 53.6675 33.8184C54.5384 32.8749 55.4092 31.9315 56.2801 30.988C59.183 27.94 62.1222 25.0371 65.0614 22.2793C63.6825 22.5696 62.2674 22.9687 60.8159 23.3679Z" fill="#CED0B4"/>
<path d="M70.6858 21.409C66.6943 24.457 62.7391 27.7954 58.8201 31.3514C57.9493 32.1497 57.0784 32.948 56.2075 33.7463C57.2598 33.71 58.3121 33.71 59.3644 33.7463C59.6547 33.456 59.945 33.202 60.2716 32.9117C64.9525 28.6662 69.706 24.7836 74.4596 21.2275C73.2621 21.2275 71.9921 21.3001 70.6858 21.409Z" fill="#CED0B4"/>
<path d="M62.0132 33.8555C63.0655 33.928 64.0815 34.0369 65.1338 34.1457C71.0122 29.6462 76.9269 25.6185 82.769 22.135C81.6804 21.9535 80.5918 21.7721 79.4669 21.627C73.8788 25.0742 68.2544 28.9931 62.6663 33.3474C62.4123 33.5289 62.1946 33.7103 62.0132 33.8555Z" fill="#CED0B4"/>
<path d="M87.6317 23.1143C81.0638 26.3437 74.3871 30.1538 67.7104 34.5445C68.545 34.6896 69.3433 34.871 70.1779 35.0525C70.3594 35.0888 70.5045 35.125 70.6859 35.1613C77.4715 30.807 84.257 27.0695 90.8612 23.9126C89.7726 23.6586 88.7203 23.3683 87.6317 23.1143Z" fill="#CED0B4"/>
<path d="M73.0444 35.7059C74.2056 35.9236 75.3668 36.105 76.5279 36.2502C83.8578 32.3675 91.115 29.1018 98.082 26.5254C97.1023 26.1263 96.0863 25.7271 95.1065 25.3643C87.9581 28.1583 80.5194 31.6055 73.0444 35.7059Z" fill="#CED0B4"/>
<path d="M101.965 28.2666C94.7439 30.4075 87.2326 33.1653 79.5762 36.5762C81.2091 36.7213 82.8057 36.7939 84.4023 36.8302C91.4055 33.891 98.2274 31.4961 104.795 29.6818C103.852 29.1738 102.908 28.702 101.965 28.2666Z" fill="#CED0B4"/>
<path d="M110.021 33.0205C110.347 32.9116 110.529 32.839 110.529 32.839C110.529 32.839 110.492 32.839 110.42 32.8753C110.456 32.8753 110.492 32.839 110.529 32.839C109.839 32.4399 109.15 32.0408 108.46 31.6416C102.473 32.9116 96.1955 34.5808 89.8091 36.7217C100.078 36.1774 107.989 33.7099 110.021 33.0205C109.912 33.0568 109.839 33.0931 109.73 33.1293C109.803 33.0931 109.912 33.0568 110.021 33.0205Z" fill="#CED0B4"/>
<path d="M0.616868 52.1796H2.03204C3.41092 52.1796 4.28179 51.4175 4.28179 50.2564C4.28179 48.9138 3.26577 48.3695 1.88689 48.3695C1.27002 48.3695 0.834586 48.4421 0.616868 48.4784V52.1796ZM0 48.0066C0.544295 47.8978 1.30631 47.8252 1.92318 47.8252C3.08434 47.8252 3.81007 48.0792 4.31808 48.5509C4.68094 48.9138 4.93494 49.4944 4.93494 50.1112C4.93494 51.3087 4.20922 52.0707 3.1932 52.4336V52.4699C3.91893 52.6876 4.35436 53.377 4.57208 54.3567C4.86237 55.7356 5.0438 56.3888 5.22524 56.7516H4.57208C4.42694 56.4976 4.2455 55.6993 3.9915 54.6107C3.70121 53.3407 3.15691 52.7601 1.99575 52.7239H0.616868V56.7879H0V48.0066Z" fill="#006225"/>
<path d="M12.4101 56.3889C14.5147 56.3889 15.6759 54.502 15.6759 52.2886C15.6759 50.438 14.6599 48.2971 12.4464 48.2971C10.1967 48.2971 9.18065 50.3291 9.18065 52.3974C9.18065 54.3932 10.3418 56.3889 12.4101 56.3889ZM12.3739 56.8969C10.1967 56.8969 8.49121 55.1915 8.49121 52.4337C8.49121 49.5308 10.233 47.7891 12.4827 47.7891C14.7325 47.7891 16.3291 49.5308 16.3291 52.2523C16.3653 55.3729 14.4422 56.8969 12.3739 56.8969Z" fill="#006225"/>
<path d="M21.9171 56.7513V52.905L19.123 47.8975H19.8125L21.2639 50.5464C21.6631 51.2358 21.9534 51.8164 22.28 52.4333H22.3162C22.5703 51.8527 22.9331 51.2358 23.3323 50.5101L24.8563 47.8975H25.5457L22.534 52.9413V56.7513H21.9171Z" fill="#006225"/>
<path d="M32.3309 53.1227L31.2423 50.1835C31.0246 49.5666 30.9157 49.1312 30.7706 48.6232H30.7343C30.5892 49.1312 30.444 49.6029 30.2626 50.1472L29.174 53.1227H32.3309ZM29.0289 53.667L27.9403 56.7513H27.2871L30.4803 47.8975H31.0972L34.2904 56.7513H33.6372L32.5123 53.667H29.0289Z" fill="#006225"/>
<path d="M37.9917 47.8975H38.6449V56.2433H42.5638V56.7513H37.9917V47.8975Z" fill="#006225"/>
<path d="M52.1073 52.4336C52.3975 52.5424 52.7967 52.5787 53.2321 52.5787C54.8287 52.5787 55.7722 51.8167 55.7722 50.4015C55.7722 49.0226 54.7562 48.3695 53.341 48.3695C52.7604 48.3695 52.325 48.4058 52.1073 48.4784V52.4336ZM51.4904 48.0066C51.9984 47.8978 52.6515 47.8252 53.3773 47.8252C54.4296 47.8252 55.2279 48.1155 55.6996 48.5872C56.135 48.9864 56.389 49.6032 56.389 50.329C56.389 51.091 56.1713 51.6716 55.7722 52.107C55.1916 52.7601 54.2481 53.0867 53.1596 53.0867C52.7604 53.0867 52.3975 53.0867 52.071 52.9779V56.7516H51.4541V48.0066H51.4904Z" fill="#006225"/>
<path d="M63.5375 53.1227L62.4489 50.1835C62.2311 49.5666 62.1223 49.1312 61.9771 48.6232H61.9409C61.7957 49.1312 61.6506 49.6029 61.4691 50.1472L60.3805 53.1227H63.5375ZM60.1991 53.667L59.1105 56.7513H58.4937L61.6869 47.8975H62.3037L65.4969 56.7513H64.8438L63.7189 53.667H60.1991Z" fill="#006225"/>
<path d="M69.1982 47.8975H69.8151V56.2433H73.7703V56.7513H69.1982V47.8975Z" fill="#006225"/>
<path d="M84.91 52.5795C84.8374 51.2369 84.7286 49.6403 84.7286 48.6606H84.6923C84.3657 49.604 84.0028 50.6564 83.4948 51.9627L81.6442 56.7525H81.2088L79.467 52.0352C78.959 50.6564 78.5962 49.6041 78.3422 48.6243H78.3059C78.2696 49.6766 78.197 51.2006 78.1244 52.6521L77.8342 56.7162H77.2173L77.8704 47.8623H78.5962L80.4831 52.9787C80.9185 54.1036 81.2088 54.9744 81.4628 55.8453H81.4991C81.7168 55.047 82.0434 54.1761 82.4788 52.9787L84.4746 47.8623H85.2366L85.8172 56.7162H85.2003L84.91 52.5795Z" fill="#006225"/>
<path d="M95.9048 52.4336C96.1951 52.5424 96.5942 52.5787 97.0296 52.5787C98.6262 52.5787 99.5697 51.8167 99.5697 50.4015C99.5697 49.0226 98.5537 48.3695 97.1385 48.3695C96.5579 48.3695 96.1225 48.4058 95.9048 48.4784V52.4336ZM95.2516 48.0066C95.7596 47.8978 96.4128 47.8252 97.1385 47.8252C98.1908 47.8252 98.9891 48.1155 99.4608 48.5872C99.8963 48.9864 100.15 49.6032 100.15 50.329C100.15 51.091 99.9326 51.6716 99.5334 52.107C98.9528 52.7601 98.0094 53.0867 96.9208 53.0867C96.5216 53.0867 96.1588 53.0867 95.8322 52.9779V56.7516H95.2153V48.0066H95.2516Z" fill="#006225"/>
<path d="M104.214 47.8975H104.831V56.2433H108.786V56.7513H104.214V47.8975Z" fill="#006225"/>
<path d="M116.842 53.1227L115.754 50.1835C115.536 49.5666 115.427 49.1312 115.282 48.6232H115.246C115.1 49.1312 114.955 49.6029 114.774 50.1472L113.685 53.1227H116.842ZM113.54 53.667L112.452 56.7513H111.798L114.992 47.8975H115.608L118.802 56.7513H118.148L117.024 53.667H113.54Z" fill="#006225"/>
<path d="M121.886 56.3522L127.22 48.478V48.4418H122.322V47.8975H128.019V48.3329L122.685 56.1707V56.2433H128.091V56.7513H121.886V56.3522Z" fill="#006225"/>
<path d="M136.256 53.1237L135.167 50.1845C134.949 49.5676 134.841 49.1322 134.695 48.6242C134.55 49.1322 134.405 49.6039 134.224 50.1482L133.135 53.1237H136.256ZM132.954 53.668L131.865 56.7523H131.212L134.405 47.8984H135.022L138.215 56.7523H137.562L136.437 53.668H132.954Z" fill="#006225"/>
<path d="M37.883 65.5335H38.8265C39.7336 65.5335 40.3142 65.0255 40.3142 64.2634C40.3142 63.3563 39.6611 62.9934 38.7176 62.9934C38.3185 62.9934 38.0282 63.0297 37.883 63.066V65.5335ZM37.4839 62.812C37.8468 62.7394 38.3548 62.7031 38.7539 62.7031C39.5159 62.7031 39.9876 62.8846 40.3505 63.1748C40.6045 63.4289 40.7497 63.7917 40.7497 64.2272C40.7497 65.0255 40.2779 65.5335 39.5885 65.7512C40.0602 65.8963 40.3505 66.3318 40.4957 66.9849C40.6771 67.8921 40.8222 68.3275 40.9311 68.5815H40.4957C40.3868 68.4001 40.2779 67.8921 40.1328 67.1663C39.9514 66.3318 39.5885 65.9326 38.8265 65.8963H37.9193V68.5815H37.5202V62.812H37.4839Z" fill="#006225"/>
<path d="M45.0677 66.1141C45.0677 65.5335 44.85 64.6627 43.834 64.6627C42.9268 64.6627 42.5277 65.461 42.4551 66.1141H45.0677ZM42.3825 66.4407C42.3825 67.7833 43.1083 68.2913 43.9791 68.2913C44.596 68.2913 44.8863 68.1824 45.1403 68.0736L45.2492 68.4002C45.104 68.4727 44.6686 68.6542 43.9429 68.6542C42.7454 68.6542 41.9834 67.7833 41.9834 66.5496C41.9834 65.1707 42.7817 64.2998 43.8703 64.2998C45.2492 64.2998 45.5032 65.5698 45.5032 66.1867C45.5032 66.2956 45.5032 66.3681 45.5032 66.4407H42.3825Z" fill="#006225"/>
<path d="M46.8095 68.0372C47.0273 68.1823 47.3901 68.3274 47.753 68.3274C48.4061 68.3274 48.7327 67.9646 48.7327 67.5291C48.7327 67.0574 48.4424 66.8397 47.8618 66.5857C47.1724 66.3317 46.8095 65.9688 46.8095 65.4608C46.8095 64.8439 47.2813 64.3359 48.0796 64.3359C48.4787 64.3359 48.8053 64.4448 48.9867 64.5899L48.8416 64.9165C48.6964 64.8077 48.4424 64.6625 48.007 64.6625C47.4627 64.6625 47.2087 64.9891 47.2087 65.3882C47.2087 65.8237 47.499 66.0051 48.0796 66.2228C48.769 66.4768 49.1682 66.8397 49.1682 67.4566C49.1682 68.1823 48.6239 68.654 47.753 68.654C47.3538 68.654 46.9547 68.5452 46.7007 68.3637L46.8095 68.0372Z" fill="#006225"/>
<path d="M52.2524 68.3276C53.1233 68.3276 53.8128 67.5293 53.8128 66.477C53.8128 65.715 53.3773 64.6627 52.2887 64.6627C51.2364 64.6627 50.7284 65.6061 50.7284 66.5133C50.7284 67.5293 51.3816 68.3276 52.2524 68.3276ZM52.2161 68.6542C51.1276 68.6542 50.293 67.8196 50.293 66.5133C50.293 65.0981 51.2364 64.2998 52.2524 64.2998C53.4136 64.2998 54.1756 65.1707 54.1756 66.4407C54.2119 68.001 53.1596 68.6542 52.2161 68.6542Z" fill="#006225"/>
<path d="M55.6999 65.6424C55.6999 65.2432 55.6999 64.8078 55.6636 64.4087H56.0627V65.2432H56.099C56.2804 64.699 56.7159 64.2998 57.2965 64.2998C57.369 64.2998 57.4053 64.2998 57.4779 64.2998V64.699C57.4053 64.699 57.369 64.699 57.2602 64.699C56.6796 64.699 56.2804 65.207 56.1716 65.8601C56.1353 65.969 56.1353 66.1141 56.1353 66.2593V68.5453H55.7361V65.6424H55.6999Z" fill="#006225"/>
<path d="M59.5096 63.502V64.4091H60.7071V64.7357H59.5096V67.4572C59.5096 68.0015 59.6911 68.328 60.1265 68.328C60.3442 68.328 60.4894 68.2917 60.5982 68.2555L60.6345 68.582C60.4894 68.6183 60.3079 68.6909 60.0539 68.6909C59.7636 68.6909 59.5096 68.582 59.3282 68.4006C59.1468 68.1829 59.0742 67.82 59.0742 67.3846V64.7357H58.3848V64.4091H59.0742V63.6471L59.5096 63.502Z" fill="#006225"/>
<path d="M68.3636 68.3641C68.0733 68.5093 67.4928 68.6544 66.767 68.6544C65.3519 68.6544 64.0093 67.7472 64.0093 65.6789C64.0093 63.9372 65.1342 62.6309 66.9848 62.6309C67.7468 62.6309 68.1822 62.8123 68.3274 62.8849L68.1822 63.2477C67.8919 63.1026 67.4565 62.9937 66.9848 62.9937C65.3882 62.9937 64.4447 64.0097 64.4447 65.7152C64.4447 67.3118 65.3519 68.3278 66.9122 68.3278C67.4202 68.3278 67.8919 68.219 68.2185 68.0738L68.3636 68.3641Z" fill="#006225"/>
<path d="M71.9196 66.332C71.0124 66.2957 69.815 66.4409 69.815 67.4569C69.815 68.0737 70.2141 68.3277 70.6496 68.3277C71.339 68.3277 71.7382 67.8923 71.8833 67.4932C71.9196 67.4206 71.9196 67.3117 71.9196 67.2392V66.332ZM72.3187 67.5657C72.3187 67.8923 72.3187 68.2189 72.3913 68.5455H71.9922L71.9196 67.9286C71.7019 68.2552 71.2664 68.618 70.577 68.618C69.7424 68.618 69.3433 68.0375 69.3433 67.4569C69.3433 66.4771 70.1778 65.8966 71.8833 65.9328V65.824C71.8833 65.4248 71.8107 64.5903 70.831 64.5903C70.4681 64.5903 70.069 64.6991 69.7787 64.9168L69.6336 64.6265C70.0327 64.3725 70.4681 64.2637 70.8673 64.2637C72.0647 64.2637 72.3187 65.1708 72.3187 65.8966V67.5657Z" fill="#006225"/>
<path d="M74.0968 65.3886C74.0968 64.9894 74.0968 64.7354 74.0605 64.3725H74.4597L74.496 65.0983C74.75 64.6265 75.1491 64.2637 75.8386 64.2637C76.4192 64.2637 76.8546 64.6628 77.036 65.1708C77.1449 64.9168 77.29 64.7354 77.4715 64.5903C77.7255 64.3725 78.0158 64.2637 78.4512 64.2637C78.8503 64.2637 79.8301 64.4814 79.8301 66.078V68.5455H79.4309V66.1143C79.4309 65.1708 79.0681 64.6265 78.3423 64.6265C77.8343 64.6265 77.3989 65.0257 77.2537 65.4611C77.2175 65.57 77.1812 65.7151 77.1812 65.8603V68.5455H76.782V65.9328C76.782 65.1708 76.4192 64.6265 75.766 64.6265C75.2217 64.6265 74.75 65.062 74.6048 65.57C74.5686 65.6788 74.5323 65.824 74.5323 65.9691V68.5455H74.0968V65.3886Z" fill="#006225"/>
<path d="M82.0796 66.9487C82.0796 67.0576 82.0796 67.1664 82.1159 67.2753C82.2974 67.9284 82.8416 68.3276 83.4948 68.3276C84.4382 68.3276 84.9825 67.5656 84.9825 66.4407C84.9825 65.4973 84.4745 64.6627 83.5311 64.6627C82.9142 64.6627 82.3336 65.0618 82.1522 65.7513C82.1159 65.8601 82.0796 66.0053 82.0796 66.1141V66.9487ZM81.6442 65.715C81.6442 65.207 81.6442 64.7715 81.6079 64.3724H82.0071L82.0433 65.1707C82.3336 64.6264 82.8416 64.2998 83.6037 64.2998C84.656 64.2998 85.3817 65.1707 85.3817 66.4044C85.3817 67.8922 84.5108 68.6542 83.4948 68.6542C82.8779 68.6542 82.3699 68.4002 82.0796 67.8922V70.2871H81.6805V65.715H81.6442Z" fill="#006225"/>
<path d="M86.8696 64.4089H87.2688V68.5819H86.8696V64.4089ZM87.0873 63.5744C86.9059 63.5744 86.7607 63.3929 86.7607 63.2115C86.7607 63.0301 86.9059 62.8486 87.0873 62.8486C87.2688 62.8486 87.4139 63.0301 87.4139 63.2115C87.4139 63.3929 87.305 63.5744 87.0873 63.5744Z" fill="#006225"/>
<path d="M89.1193 65.3884C89.1193 64.9892 89.1193 64.7352 89.083 64.3724H89.4822L89.5184 65.1344C89.7362 64.6627 90.2805 64.2998 90.9336 64.2998C91.3328 64.2998 92.3851 64.5175 92.3851 66.0778V68.5816H91.9859V66.1141C91.9859 65.3521 91.6956 64.6627 90.8248 64.6627C90.2442 64.6627 89.7362 65.0618 89.591 65.6424C89.5547 65.7513 89.5547 65.8601 89.5547 66.0053V68.5816H89.1556V65.3884H89.1193Z" fill="#006225"/>
<path d="M96.4128 66.332C95.5056 66.2957 94.3082 66.4409 94.3082 67.4569C94.3082 68.0737 94.7073 68.3277 95.1427 68.3277C95.8322 68.3277 96.2313 67.8923 96.3765 67.4932C96.4128 67.4206 96.4128 67.3117 96.4128 67.2392V66.332ZM96.8119 67.5657C96.8119 67.8923 96.8119 68.2189 96.8845 68.5455H96.4853L96.4128 67.9286C96.195 68.2552 95.7596 68.618 95.0702 68.618C94.2356 68.618 93.8364 68.0375 93.8364 67.4569C93.8364 66.4771 94.671 65.8966 96.3765 65.9328V65.824C96.3765 65.4248 96.3039 64.5903 95.3242 64.5903C94.9613 64.5903 94.5622 64.6991 94.2719 64.9168L94.1267 64.6265C94.5259 64.3725 94.9613 64.2637 95.3605 64.2637C96.5579 64.2637 96.8119 65.1708 96.8119 65.8966V67.5657Z" fill="#006225"/>
<path d="M98.4087 68.0372C98.6264 68.1823 98.9892 68.3274 99.3521 68.3274C100.005 68.3274 100.332 67.9646 100.332 67.5291C100.332 67.0574 100.042 66.8397 99.461 66.5857C98.7715 66.3317 98.4087 65.9688 98.4087 65.4608C98.4087 64.8439 98.8804 64.3359 99.6787 64.3359C100.078 64.3359 100.404 64.4448 100.586 64.5899L100.441 64.9165C100.296 64.8077 100.042 64.6625 99.6061 64.6625C99.0618 64.6625 98.8078 64.9891 98.8078 65.3882C98.8078 65.8237 99.0981 66.0051 99.6787 66.2228C100.368 66.4768 100.767 66.8397 100.767 67.4566C100.767 68.1823 100.223 68.654 99.3521 68.654C98.953 68.654 98.5538 68.5452 98.2998 68.3637L98.4087 68.0372Z" fill="#006225"/>
</g>
<defs>
<clipPath id="clip0_2213:3520">
<rect width="138.215" height="70.2872" fill="white"/>
</clipPath>
</defs>
</svg>
